<mxfile host="Electron" modified="2024-04-29T06:10:03.240Z" agent="Mozilla/5.0 (Macintosh; Intel Mac OS X 10_15_7) AppleWebKit/537.36 (KHTML, like Gecko) draw.io/24.2.5 Chrome/120.0.6099.109 Electron/28.1.0 Safari/537.36" etag="TuosUygHz3pFpi6PjqPh" version="24.2.5" type="device">
  <diagram name="第 1 页" id="2vEdpzDpugMFNKnhxJr0">
    <mxGraphModel dx="1434" dy="907" grid="1" gridSize="10" guides="1" tooltips="1" connect="1" arrows="1" fold="1" page="1" pageScale="1" pageWidth="827" pageHeight="1169" math="0" shadow="0">
      <root>
        <mxCell id="0" />
        <mxCell id="1" parent="0" />
        <mxCell id="h1WioPXM4pZAhmJqxUV7-5" style="rounded=0;orthogonalLoop=1;jettySize=auto;html=1;strokeWidth=3;exitX=0.25;exitY=1;exitDx=0;exitDy=0;entryX=0.75;entryY=0;entryDx=0;entryDy=0;" parent="1" source="h1WioPXM4pZAhmJqxUV7-1" target="h1WioPXM4pZAhmJqxUV7-2" edge="1">
          <mxGeometry relative="1" as="geometry" />
        </mxCell>
        <mxCell id="h1WioPXM4pZAhmJqxUV7-9" style="rounded=0;orthogonalLoop=1;jettySize=auto;html=1;exitX=0.75;exitY=1;exitDx=0;exitDy=0;entryX=0.5;entryY=0;entryDx=0;entryDy=0;strokeWidth=3;" parent="1" source="h1WioPXM4pZAhmJqxUV7-1" target="h1WioPXM4pZAhmJqxUV7-8" edge="1">
          <mxGeometry relative="1" as="geometry" />
        </mxCell>
        <mxCell id="h1WioPXM4pZAhmJqxUV7-11" style="rounded=0;orthogonalLoop=1;jettySize=auto;html=1;entryX=0.5;entryY=0;entryDx=0;entryDy=0;strokeWidth=3;exitX=0.5;exitY=1;exitDx=0;exitDy=0;" parent="1" source="h1WioPXM4pZAhmJqxUV7-1" target="h1WioPXM4pZAhmJqxUV7-10" edge="1">
          <mxGeometry relative="1" as="geometry" />
        </mxCell>
        <mxCell id="h1WioPXM4pZAhmJqxUV7-1" value="&lt;span style=&quot;font-size: 24px;&quot;&gt;Root node&lt;/span&gt;" style="rounded=0;whiteSpace=wrap;html=1;" parent="1" vertex="1">
          <mxGeometry x="160" width="120" height="60" as="geometry" />
        </mxCell>
        <mxCell id="h1WioPXM4pZAhmJqxUV7-4" style="rounded=0;orthogonalLoop=1;jettySize=auto;html=1;entryX=0.5;entryY=0;entryDx=0;entryDy=0;strokeWidth=3;exitX=0.25;exitY=1;exitDx=0;exitDy=0;" parent="1" source="h1WioPXM4pZAhmJqxUV7-2" target="h1WioPXM4pZAhmJqxUV7-3" edge="1">
          <mxGeometry relative="1" as="geometry" />
        </mxCell>
        <mxCell id="h1WioPXM4pZAhmJqxUV7-7" style="rounded=0;orthogonalLoop=1;jettySize=auto;html=1;entryX=0.5;entryY=0;entryDx=0;entryDy=0;strokeWidth=3;exitX=0.75;exitY=1;exitDx=0;exitDy=0;" parent="1" source="h1WioPXM4pZAhmJqxUV7-2" target="h1WioPXM4pZAhmJqxUV7-6" edge="1">
          <mxGeometry relative="1" as="geometry" />
        </mxCell>
        <mxCell id="h1WioPXM4pZAhmJqxUV7-2" value="&lt;font style=&quot;font-size: 24px;&quot;&gt;Node&lt;/font&gt;" style="rounded=0;whiteSpace=wrap;html=1;" parent="1" vertex="1">
          <mxGeometry x="80" y="100" width="120" height="60" as="geometry" />
        </mxCell>
        <mxCell id="h1WioPXM4pZAhmJqxUV7-3" value="&lt;span style=&quot;font-size: 24px;&quot;&gt;Leaf&lt;/span&gt;" style="rounded=0;whiteSpace=wrap;html=1;" parent="1" vertex="1">
          <mxGeometry y="200" width="120" height="60" as="geometry" />
        </mxCell>
        <mxCell id="h1WioPXM4pZAhmJqxUV7-6" value="&lt;span style=&quot;font-size: 24px;&quot;&gt;Leaf&lt;/span&gt;" style="rounded=0;whiteSpace=wrap;html=1;" parent="1" vertex="1">
          <mxGeometry x="160" y="200" width="120" height="60" as="geometry" />
        </mxCell>
        <mxCell id="h1WioPXM4pZAhmJqxUV7-8" value="&lt;span style=&quot;font-size: 24px;&quot;&gt;Leaf&lt;/span&gt;" style="rounded=0;whiteSpace=wrap;html=1;" parent="1" vertex="1">
          <mxGeometry x="360" y="100" width="120" height="60" as="geometry" />
        </mxCell>
        <mxCell id="h1WioPXM4pZAhmJqxUV7-10" value="&lt;span style=&quot;font-size: 24px;&quot;&gt;Leaf&lt;/span&gt;" style="rounded=0;whiteSpace=wrap;html=1;" parent="1" vertex="1">
          <mxGeometry x="220" y="100" width="120" height="60" as="geometry" />
        </mxCell>
      </root>
    </mxGraphModel>
  </diagram>
</mxfile>
